<svg width="284" height="292" viewBox="0 0 284 292" fill="none" xmlns="http://www.w3.org/2000/svg">
<g clip-path="url(#clip0_9430_13436)">
<g clip-path="url(#clip1_9430_13436)">
<path d="M-46.8125 280.683C-46.8125 280.683 70.2213 312.665 79.6445 268.541C89.0676 224.417 18.7805 195.826 89.4896 196.002C160.216 196.178 332.752 86.7899 270.622 0.0703125" stroke="url(#paint0_linear_9430_13436)" stroke-width="0.13" stroke-miterlimit="10"/>
<path d="M-48.3047 279.135C-48.3047 279.135 68.817 311.345 78.2402 267.203C87.6634 223.079 17.3763 194.489 88.0853 194.665C158.812 194.84 330.293 86.4365 268.585 0.0859375" stroke="url(#paint1_linear_9430_13436)" stroke-width="0.13" stroke-miterlimit="10"/>
<path d="M-49.8047 277.593C-49.8047 277.593 67.4049 310.014 76.8281 265.889C86.2513 221.765 15.9642 193.175 86.6732 193.351C157.4 193.526 327.826 86.1066 266.522 0.125" stroke="url(#paint2_linear_9430_13436)" stroke-width="0.13" stroke-miterlimit="10"/>
<path d="M-51.2969 276.042C-51.2969 276.042 66.0006 308.692 75.4238 264.568C84.847 220.443 14.5599 191.853 85.2689 192.029C155.996 192.205 325.367 85.7688 264.485 0.15625" stroke="url(#paint3_linear_9430_13436)" stroke-width="0.13" stroke-miterlimit="10"/>
<path d="M-52.7891 274.496C-52.7891 274.496 64.5963 307.374 74.0195 263.232C83.4427 219.108 13.1556 190.518 83.8646 190.693C154.591 190.869 322.907 85.3998 262.43 0.15625" stroke="url(#paint4_linear_9430_13436)" stroke-width="0.13" stroke-miterlimit="10"/>
<path d="M-54.2812 272.954C-54.2812 272.954 63.192 306.042 72.6152 261.918C82.0384 217.794 11.7513 189.204 82.4603 189.379C153.187 189.555 320.448 85.0698 260.393 0.195312" stroke="url(#paint5_linear_9430_13436)" stroke-width="0.13" stroke-miterlimit="10"/>
<path d="M-55.7812 271.403C-55.7812 271.403 61.7799 304.721 71.2031 260.596C80.6263 216.472 10.3392 187.882 81.0483 188.058C151.775 188.233 317.981 84.7321 258.331 0.226562" stroke="url(#paint6_linear_9430_13436)" stroke-width="0.13" stroke-miterlimit="10"/>
<path d="M-57.2734 269.861C-57.2734 269.861 60.3757 303.407 69.8164 259.282C79.2396 215.158 8.95253 186.568 79.6615 186.744C150.388 186.919 315.558 84.3845 256.311 0.265625" stroke="url(#paint7_linear_9430_13436)" stroke-width="0.13" stroke-miterlimit="10"/>
<path d="M-58.7656 268.313C-58.7656 268.313 58.9714 302.087 68.4121 257.945C77.8353 213.821 7.54823 185.23 78.2572 185.406C148.984 185.582 313.098 84.0311 254.274 0.28125" stroke="url(#paint8_linear_9430_13436)" stroke-width="0.13" stroke-miterlimit="10"/>
<path d="M-60.2656 266.762C-60.2656 266.762 57.5593 300.747 67.0001 256.623C76.4232 212.499 6.13616 183.909 76.8452 184.084C147.572 184.26 310.631 83.6934 252.211 0.3125" stroke="url(#paint9_linear_9430_13436)" stroke-width="0.13" stroke-miterlimit="10"/>
<path d="M-61.7578 265.22C-61.7578 265.22 56.155 299.433 65.5958 255.309C75.0189 211.185 4.73187 182.595 75.4409 182.77C146.167 182.946 308.172 83.3634 250.174 0.351562" stroke="url(#paint10_linear_9430_13436)" stroke-width="0.13" stroke-miterlimit="10"/>
<path d="M-63.25 263.673C-63.25 263.673 54.7507 298.115 64.1915 253.974C73.6147 209.849 3.32757 181.259 74.0366 181.435C144.763 181.611 305.713 82.9944 248.119 0.351562" stroke="url(#paint11_linear_9430_13436)" stroke-width="0.13" stroke-miterlimit="10"/>
<path d="M-64.7422 262.123C-64.7422 262.123 53.3464 296.776 62.7872 252.652C72.2104 208.527 1.9233 179.937 72.6323 180.113C143.359 180.289 303.254 82.6566 246.082 0.382812" stroke="url(#paint12_linear_9430_13436)" stroke-width="0.13" stroke-miterlimit="10"/>
<path d="M-66.2422 260.581C-66.2422 260.581 51.9519 295.462 61.3751 251.338C70.7983 207.213 0.511203 178.623 71.2202 178.799C141.947 178.975 300.787 82.3267 244.02 0.421875" stroke="url(#paint13_linear_9430_13436)" stroke-width="0.13" stroke-miterlimit="10"/>
<path d="M-67.7344 259.032C-67.7344 259.032 50.5476 294.142 59.9708 250C69.394 205.876 -0.89309 177.286 69.8159 177.461C140.543 177.637 298.346 81.9733 241.982 0.4375" stroke="url(#paint14_linear_9430_13436)" stroke-width="0.13" stroke-miterlimit="10"/>
<path d="M-69.2266 257.49C-69.2266 257.49 49.1433 292.81 58.5665 248.686C67.9897 204.562 -2.29738 175.972 68.4116 176.147C139.138 176.323 295.886 81.6257 239.928 0.476562" stroke="url(#paint15_linear_9430_13436)" stroke-width="0.13" stroke-miterlimit="10"/>
<path d="M-70.7266 255.94C-70.7266 255.94 47.7312 291.489 57.1544 247.364C66.5776 203.24 -3.70948 174.65 66.9995 174.826C137.726 175.001 293.42 81.288 237.883 0.507812" stroke="url(#paint16_linear_9430_13436)" stroke-width="0.13" stroke-miterlimit="10"/>
<path d="M-72.2344 254.376C-72.2344 254.376 46.3114 290.153 55.7345 246.011C65.1577 201.887 -5.12937 173.297 65.5796 173.473C136.306 173.648 290.945 80.919 235.812 0.507812" stroke="url(#paint17_linear_9430_13436)" stroke-width="0.13" stroke-miterlimit="10"/>
<path d="M-73.7266 252.827C-73.7266 252.827 44.9071 288.816 54.3302 244.691C63.7534 200.567 -6.53365 171.977 64.1754 172.153C134.902 172.328 288.486 80.5831 233.775 0.523438" stroke="url(#paint18_linear_9430_13436)" stroke-width="0.13" stroke-miterlimit="10"/>
<path d="M-75.2266 251.285C-75.2266 251.285 43.495 287.502 52.9181 243.377C62.3413 199.253 -7.94575 170.663 62.7633 170.839C133.49 171.014 286.019 80.2356 231.712 0.5625" stroke="url(#paint19_linear_9430_13436)" stroke-width="0.13" stroke-miterlimit="10"/>
<path d="M-76.7188 249.737C-76.7188 249.737 42.0907 286.182 51.5314 242.04C60.9546 197.916 -9.33245 169.326 61.3766 169.501C132.103 169.677 283.577 79.8822 229.693 0.578125" stroke="url(#paint20_linear_9430_13436)" stroke-width="0.13" stroke-miterlimit="10"/>
<path d="M-78.2109 248.194C-78.2109 248.194 40.6864 284.85 50.1272 240.726C59.5503 196.602 -10.7368 168.012 59.9723 168.187C130.699 168.363 281.136 79.5523 227.638 0.617188" stroke="url(#paint21_linear_9430_13436)" stroke-width="0.13" stroke-miterlimit="10"/>
<path d="M-79.7031 246.644C-79.7031 246.644 39.2821 283.528 48.7229 239.404C58.146 195.28 -12.141 166.69 58.568 166.865C129.295 167.041 278.677 79.2145 225.601 0.648438" stroke="url(#paint22_linear_9430_13436)" stroke-width="0.13" stroke-miterlimit="10"/>
<path d="M-81.2031 245.096C-81.2031 245.096 37.87 282.209 47.3108 238.067C56.734 193.943 -13.5531 165.352 57.1559 165.528C127.882 165.704 276.21 78.8435 223.538 0.664062" stroke="url(#paint23_linear_9430_13436)" stroke-width="0.13" stroke-miterlimit="10"/>
<path d="M-82.6953 243.553C-82.6953 243.553 36.4657 280.877 45.9065 236.753C55.3296 192.628 -14.9574 164.038 55.7516 164.214C126.478 164.39 273.751 78.5135 221.501 0.703125" stroke="url(#paint24_linear_9430_13436)" stroke-width="0.13" stroke-miterlimit="10"/>
<path d="M-84.1875 242.005C-84.1875 242.005 35.0614 279.557 44.5022 235.433C53.9254 191.309 -16.3617 162.718 54.3473 162.894C125.074 163.07 271.291 78.1777 219.446 0.71875" stroke="url(#paint25_linear_9430_13436)" stroke-width="0.13" stroke-miterlimit="10"/>
<path d="M-85.6875 240.462C-85.6875 240.462 33.6493 278.243 43.0901 234.119C52.5133 189.995 -17.7738 161.404 52.9352 161.58C123.662 161.756 268.824 77.8478 217.401 0.757812" stroke="url(#paint26_linear_9430_13436)" stroke-width="0.13" stroke-miterlimit="10"/>
<path d="M-87.1797 238.914C-87.1797 238.914 32.2627 276.906 41.6858 232.781C51.109 188.657 -19.1781 160.067 51.5309 160.243C122.258 160.418 266.365 77.4768 215.347 0.773438" stroke="url(#paint27_linear_9430_13436)" stroke-width="0.13" stroke-miterlimit="10"/>
<path d="M-88.6719 237.364C-88.6719 237.364 30.8584 275.584 40.2816 231.46C49.7047 187.335 -20.5824 158.745 50.1267 158.921C120.853 159.097 263.924 77.139 213.309 0.804688" stroke="url(#paint28_linear_9430_13436)" stroke-width="0.13" stroke-miterlimit="10"/>
<path d="M-90.1641 235.821C-90.1641 235.821 29.4541 274.27 38.8772 230.146C48.3004 186.021 -21.9867 157.431 48.7224 157.607C119.449 157.783 261.465 76.8091 211.255 0.84375" stroke="url(#paint29_linear_9430_13436)" stroke-width="0.13" stroke-miterlimit="10"/>
<path d="M-91.6641 234.273C-91.6641 234.273 28.042 272.95 37.4651 228.808C46.8883 184.684 -23.3987 156.094 47.3103 156.269C118.037 156.445 258.998 76.4557 209.21 0.859375" stroke="url(#paint30_linear_9430_13436)" stroke-width="0.13" stroke-miterlimit="10"/>
<path d="M-93.1562 232.731C-93.1562 232.731 26.6377 271.618 36.0609 227.494C45.484 183.37 -24.803 154.78 45.906 154.955C116.633 155.131 256.539 76.1082 207.155 0.898438" stroke="url(#paint31_linear_9430_13436)" stroke-width="0.13" stroke-miterlimit="10"/>
<path d="M-94.6484 231.182C-94.6484 231.182 25.2334 270.298 34.6566 226.174C44.0798 182.05 -26.2073 153.46 44.5017 153.635C115.228 153.811 254.08 75.7723 205.118 0.914062" stroke="url(#paint32_linear_9430_13436)" stroke-width="0.13" stroke-miterlimit="10"/>
<path d="M-96.1406 229.634C-96.1406 229.634 23.8291 268.979 33.2523 224.837C42.6755 180.713 -27.6116 152.122 43.0974 152.298C113.824 152.474 251.62 75.4189 203.063 0.929688" stroke="url(#paint33_linear_9430_13436)" stroke-width="0.13" stroke-miterlimit="10"/>
<path d="M-97.6406 228.092C-97.6406 228.092 22.417 267.647 31.8578 223.523C41.281 179.399 -29.0061 150.808 41.7029 150.984C112.429 151.16 249.171 75.089 201.036 0.96875" stroke="url(#paint34_linear_9430_13436)" stroke-width="0.13" stroke-miterlimit="10"/>
<path d="M-99.1328 226.541C-99.1328 226.541 21.0127 266.325 30.4535 222.201C39.8767 178.077 -30.4104 149.487 40.2986 149.662C111.025 149.838 246.73 74.7337 198.981 1" stroke="url(#paint35_linear_9430_13436)" stroke-width="0.13" stroke-miterlimit="10"/>
<path d="M-100.625 224.993C-100.625 224.993 19.6084 265.005 29.0492 220.863C38.4724 176.739 -31.8147 148.149 38.8943 148.325C109.621 148.5 244.27 74.3803 196.944 1.01562" stroke="url(#paint36_linear_9430_13436)" stroke-width="0.13" stroke-miterlimit="10"/>
<path d="M-102.125 223.451C-102.125 223.451 18.1963 263.674 27.6371 219.549C37.0603 175.425 -33.2268 146.835 37.4822 147.011C108.209 147.186 241.803 74.0503 194.881 1.05469" stroke="url(#paint37_linear_9430_13436)" stroke-width="0.13" stroke-miterlimit="10"/>
<path d="M-103.617 221.9C-103.617 221.9 16.7921 262.352 26.2328 218.228C35.656 174.103 -34.6311 145.513 36.078 145.689C106.805 145.865 239.344 73.7125 192.844 1.08594" stroke="url(#paint38_linear_9430_13436)" stroke-width="0.13" stroke-miterlimit="10"/>
<path d="M-105.109 220.354C-105.109 220.354 15.3878 261.034 24.8286 216.892C34.2517 172.768 -36.0354 144.178 34.6737 144.353C105.4 144.529 236.885 73.3435 190.789 1.08594" stroke="url(#paint39_linear_9430_13436)" stroke-width="0.13" stroke-miterlimit="10"/>
<path d="M-106.602 218.811C-106.602 218.811 14.0011 259.702 23.4243 215.578C32.8475 171.454 -37.4396 142.864 33.2694 143.039C103.996 143.215 234.426 73.0135 188.752 1.125" stroke="url(#paint40_linear_9430_13436)" stroke-width="0.13" stroke-miterlimit="10"/>
<path d="M-108.102 217.261C-108.102 217.261 12.589 258.381 22.0122 214.256C31.4353 170.132 -38.8517 141.542 31.8573 141.718C102.584 141.893 231.959 72.6758 186.689 1.15625" stroke="url(#paint41_linear_9430_13436)" stroke-width="0.13" stroke-miterlimit="10"/>
<path d="M-109.594 215.697C-109.594 215.697 11.1847 257.045 20.6079 212.903C30.0311 168.779 -40.256 140.189 30.453 140.365C101.18 140.54 229.518 72.3068 184.652 1.15625" stroke="url(#paint42_linear_9430_13436)" stroke-width="0.13" stroke-miterlimit="10"/>
<path d="M-111.109 214.155C-111.109 214.155 9.75698 255.713 19.1802 211.589C28.6033 167.465 -41.6837 138.875 29.0253 139.051C99.7519 139.226 227.035 71.9592 182.574 1.19531" stroke="url(#paint43_linear_9430_13436)" stroke-width="0.13" stroke-miterlimit="10"/>
<path d="M-112.602 212.605C-112.602 212.605 8.35271 254.392 17.7759 210.267C27.1991 166.143 -43.088 137.553 27.621 137.729C98.3476 137.904 224.576 71.6215 180.537 1.22656" stroke="url(#paint44_linear_9430_13436)" stroke-width="0.13" stroke-miterlimit="10"/>
<path d="M-114.094 211.064C-114.094 211.064 6.94842 253.08 16.3716 208.938C25.7948 164.814 -44.4923 136.223 26.2167 136.399C96.9433 136.575 222.117 71.2759 178.482 1.25" stroke="url(#paint45_linear_9430_13436)" stroke-width="0.13" stroke-miterlimit="10"/>
<path d="M-115.586 209.516C-115.586 209.516 5.54413 251.742 14.9673 207.618C24.3905 163.494 -45.8966 134.903 24.8124 135.079C95.539 135.255 219.658 70.9401 176.445 1.26562" stroke="url(#paint46_linear_9430_13436)" stroke-width="0.13" stroke-miterlimit="10"/>
<path d="M-117.086 207.965C-117.086 207.965 4.13202 250.42 13.5552 206.296C22.9784 162.172 -47.3087 133.582 23.4003 133.757C94.1269 133.933 217.191 70.5847 174.382 1.29688" stroke="url(#paint47_linear_9430_13436)" stroke-width="0.13" stroke-miterlimit="10"/>
<path d="M-118.578 206.423C-118.578 206.423 2.72773 249.106 12.1685 204.982C21.5917 160.858 -48.6954 132.268 22.0136 132.443C92.7402 132.619 214.749 70.2548 172.363 1.33594" stroke="url(#paint48_linear_9430_13436)" stroke-width="0.13" stroke-miterlimit="10"/>
<path d="M-120.07 204.875C-120.07 204.875 1.32346 247.786 10.7642 203.645C20.1874 159.52 -50.0997 130.93 20.6093 131.106C91.3359 131.282 212.29 69.9014 170.308 1.35156" stroke="url(#paint49_linear_9430_13436)" stroke-width="0.13" stroke-miterlimit="10"/>
<path d="M-121.562 203.332C-121.562 203.332 -0.0808332 246.455 9.35993 202.331C18.7831 158.206 -51.504 129.616 19.205 129.792C89.9316 129.968 209.849 69.5714 168.271 1.39062" stroke="url(#paint50_linear_9430_13436)" stroke-width="0.13" stroke-miterlimit="10"/>
<path d="M-123.062 201.782C-123.062 201.782 -1.49292 245.133 7.94784 201.009C17.371 156.885 -52.9161 128.294 17.793 128.47C88.5195 128.646 207.382 69.2161 166.208 1.42188" stroke="url(#paint51_linear_9430_13436)" stroke-width="0.13" stroke-miterlimit="10"/>
<path d="M-124.555 200.234C-124.555 200.234 -2.89722 243.813 6.54354 199.671C15.9667 155.547 -54.3204 126.957 16.3887 127.133C87.1152 127.308 204.923 68.8627 164.171 1.4375" stroke="url(#paint52_linear_9430_13436)" stroke-width="0.13" stroke-miterlimit="10"/>
<path d="M-126.047 198.691C-126.047 198.691 -4.3015 242.482 5.13926 198.357C14.5624 154.233 -55.7246 125.643 14.9844 125.819C85.711 125.994 202.463 68.5327 162.116 1.47656" stroke="url(#paint53_linear_9430_13436)" stroke-width="0.13" stroke-miterlimit="10"/>
<path d="M-127.547 197.143C-127.547 197.143 -5.69602 241.162 3.72716 197.037C13.1503 152.913 -57.1367 124.323 13.5723 124.499C84.2989 124.674 199.997 68.1969 160.071 1.49219" stroke="url(#paint54_linear_9430_13436)" stroke-width="0.13" stroke-miterlimit="10"/>
<path d="M-129.039 195.595C-129.039 195.595 -7.1003 239.842 2.32288 195.7C11.7461 151.576 -58.541 122.986 12.168 123.161C82.8946 123.337 197.537 67.8259 158.016 1.50781" stroke="url(#paint55_linear_9430_13436)" stroke-width="0.13" stroke-miterlimit="10"/>
<path d="M-130.531 194.052C-130.531 194.052 -8.50457 238.51 0.918608 194.386C10.3418 150.262 -59.9453 121.672 10.7637 121.847C81.4903 122.023 195.078 67.496 155.979 1.54688" stroke="url(#paint56_linear_9430_13436)" stroke-width="0.13" stroke-miterlimit="10"/>
<path d="M-132.023 192.502C-132.023 192.502 -9.90886 237.188 -0.485676 193.064C8.93751 148.94 -61.3496 120.35 9.35944 120.525C80.086 120.701 192.637 67.1582 153.924 1.57812" stroke="url(#paint57_linear_9430_13436)" stroke-width="0.13" stroke-miterlimit="10"/>
<path d="M-133.523 190.961C-133.523 190.961 -11.321 235.876 -1.89779 191.735C7.52539 147.61 -62.7617 119.02 7.94733 119.196C78.6739 119.372 190.17 66.8126 151.879 1.60156" stroke="url(#paint58_linear_9430_13436)" stroke-width="0.13" stroke-miterlimit="10"/>
<path d="M-135.016 189.411C-135.016 189.411 -12.7253 234.537 -3.30208 190.413C6.1211 146.289 -64.166 117.698 6.54305 117.874C77.2696 118.05 187.711 66.4573 149.825 1.63281" stroke="url(#paint59_linear_9430_13436)" stroke-width="0.13" stroke-miterlimit="10"/>
<path d="M-136.508 187.869C-136.508 187.869 -14.1295 233.223 -4.70635 189.099C4.71683 144.975 -65.5703 116.384 5.13876 116.56C75.8654 116.736 185.252 66.1273 147.787 1.67188" stroke="url(#paint60_linear_9430_13436)" stroke-width="0.13" stroke-miterlimit="10"/>
<path d="M-138 186.322C-138 186.322 -15.5338 231.905 -6.09306 187.763C3.33012 143.639 -66.9569 115.049 3.75207 115.225C74.4787 115.4 182.81 65.7759 145.75 1.67188" stroke="url(#paint61_linear_9430_13436)" stroke-width="0.13" stroke-miterlimit="10"/>
<path d="M-139.5 184.772C-139.5 184.772 -16.9459 230.566 -7.50515 186.441C1.91803 142.317 -68.3691 113.727 2.33996 113.903C73.0666 114.078 180.343 65.4381 143.705 1.70312" stroke="url(#paint62_linear_9430_13436)" stroke-width="0.13" stroke-miterlimit="10"/>
<path d="M-140.992 183.23C-140.992 183.23 -18.3502 229.252 -8.90943 185.127C0.513749 141.003 -69.7733 112.413 0.935679 112.589C71.6623 112.764 177.884 65.0906 141.651 1.74219" stroke="url(#paint63_linear_9430_13436)" stroke-width="0.13" stroke-miterlimit="10"/>
<path d="M-142.484 181.681C-142.484 181.681 -19.7545 227.932 -10.3137 183.79C-0.89054 139.666 -71.1776 111.076 -0.46861 111.251C70.258 111.427 175.442 64.7372 139.613 1.75781" stroke="url(#paint64_linear_9430_13436)" stroke-width="0.13" stroke-miterlimit="10"/>
<path d="M-143.984 180.131C-143.984 180.131 -21.1666 226.592 -11.7258 182.468C-2.30262 138.344 -72.5897 109.754 -1.88069 109.929C68.8459 110.105 172.976 64.3994 137.551 1.78906" stroke="url(#paint65_linear_9430_13436)" stroke-width="0.13" stroke-miterlimit="10"/>
<path d="M-145.477 178.589C-145.477 178.589 -22.5709 225.278 -13.1301 181.154C-3.70692 137.03 -73.994 108.44 -3.28498 108.615C67.4416 108.791 170.516 64.0694 135.514 1.82812" stroke="url(#paint66_linear_9430_13436)" stroke-width="0.13" stroke-miterlimit="10"/>
<path d="M-146.969 177.023C-146.969 177.023 -23.9752 223.941 -14.5344 179.817C-5.11121 135.692 -75.3983 107.102 -4.68928 107.278C66.0373 107.454 168.057 63.6985 133.459 1.84375" stroke="url(#paint67_linear_9430_13436)" stroke-width="0.13" stroke-miterlimit="10"/>
<path d="M-148.461 175.476C-148.461 175.476 -25.3619 222.605 -15.9387 178.481C-6.5155 134.357 -76.8026 105.767 -6.09357 105.942C64.633 106.118 165.598 63.347 131.422 1.84375" stroke="url(#paint68_linear_9430_13436)" stroke-width="0.13" stroke-miterlimit="10"/>
<path d="M-149.977 173.934C-149.977 173.934 -26.7896 221.291 -17.3664 177.167C-7.94321 133.043 -78.2303 104.453 -7.52128 104.628C63.2053 104.804 163.116 63.0171 129.343 1.88281" stroke="url(#paint69_linear_9430_13436)" stroke-width="0.13" stroke-miterlimit="10"/>
<path d="M-151.469 172.384C-151.469 172.384 -28.1939 219.97 -18.7707 175.845C-9.3475 131.721 -79.6346 103.131 -8.92557 103.307C61.801 103.482 160.657 62.6793 127.306 1.91406" stroke="url(#paint70_linear_9430_13436)" stroke-width="0.13" stroke-miterlimit="10"/>
<path d="M-152.961 170.835C-152.961 170.835 -29.5981 218.65 -20.175 174.508C-10.7518 130.384 -81.0389 101.793 -10.3299 101.969C60.3967 102.145 158.215 62.3083 125.251 1.92969" stroke="url(#paint71_linear_9430_13436)" stroke-width="0.13" stroke-miterlimit="10"/>
</g>
</g>
<defs>
<linearGradient id="paint0_linear_9430_13436" x1="118.533" y1="0.0703125" x2="118.533" y2="291.883" gradientUnits="userSpaceOnUse">
<stop stop-color="#00DBD2"/>
<stop offset="1" stop-color="#2C80FF"/>
</linearGradient>
<linearGradient id="paint1_linear_9430_13436" x1="116.719" y1="0.0859375" x2="116.719" y2="290.477" gradientUnits="userSpaceOnUse">
<stop stop-color="#00DBD2"/>
<stop offset="1" stop-color="#2C80FF"/>
</linearGradient>
<linearGradient id="paint2_linear_9430_13436" x1="114.892" y1="0.125" x2="114.892" y2="289.073" gradientUnits="userSpaceOnUse">
<stop stop-color="#00DBD2"/>
<stop offset="1" stop-color="#2C80FF"/>
</linearGradient>
<linearGradient id="paint3_linear_9430_13436" x1="113.078" y1="0.15625" x2="113.078" y2="287.669" gradientUnits="userSpaceOnUse">
<stop stop-color="#00DBD2"/>
<stop offset="1" stop-color="#2C80FF"/>
</linearGradient>
<linearGradient id="paint4_linear_9430_13436" x1="111.258" y1="0.15625" x2="111.258" y2="286.267" gradientUnits="userSpaceOnUse">
<stop stop-color="#00DBD2"/>
<stop offset="1" stop-color="#2C80FF"/>
</linearGradient>
<linearGradient id="paint5_linear_9430_13436" x1="109.444" y1="0.195312" x2="109.444" y2="284.864" gradientUnits="userSpaceOnUse">
<stop stop-color="#00DBD2"/>
<stop offset="1" stop-color="#2C80FF"/>
</linearGradient>
<linearGradient id="paint6_linear_9430_13436" x1="107.617" y1="0.226562" x2="107.617" y2="283.462" gradientUnits="userSpaceOnUse">
<stop stop-color="#00DBD2"/>
<stop offset="1" stop-color="#2C80FF"/>
</linearGradient>
<linearGradient id="paint7_linear_9430_13436" x1="105.815" y1="0.265625" x2="105.815" y2="282.069" gradientUnits="userSpaceOnUse">
<stop stop-color="#00DBD2"/>
<stop offset="1" stop-color="#2C80FF"/>
</linearGradient>
<linearGradient id="paint8_linear_9430_13436" x1="104.001" y1="0.28125" x2="104.001" y2="280.666" gradientUnits="userSpaceOnUse">
<stop stop-color="#00DBD2"/>
<stop offset="1" stop-color="#2C80FF"/>
</linearGradient>
<linearGradient id="paint9_linear_9430_13436" x1="102.174" y1="0.3125" x2="102.174" y2="279.258" gradientUnits="userSpaceOnUse">
<stop stop-color="#00DBD2"/>
<stop offset="1" stop-color="#2C80FF"/>
</linearGradient>
<linearGradient id="paint10_linear_9430_13436" x1="100.36" y1="0.351562" x2="100.36" y2="277.866" gradientUnits="userSpaceOnUse">
<stop stop-color="#00DBD2"/>
<stop offset="1" stop-color="#2C80FF"/>
</linearGradient>
<linearGradient id="paint11_linear_9430_13436" x1="98.5407" y1="0.351562" x2="98.5407" y2="276.466" gradientUnits="userSpaceOnUse">
<stop stop-color="#00DBD2"/>
<stop offset="1" stop-color="#2C80FF"/>
</linearGradient>
<linearGradient id="paint12_linear_9430_13436" x1="96.7269" y1="0.382812" x2="96.7269" y2="275.06" gradientUnits="userSpaceOnUse">
<stop stop-color="#00DBD2"/>
<stop offset="1" stop-color="#2C80FF"/>
</linearGradient>
<linearGradient id="paint13_linear_9430_13436" x1="94.8997" y1="0.421875" x2="94.8997" y2="273.669" gradientUnits="userSpaceOnUse">
<stop stop-color="#00DBD2"/>
<stop offset="1" stop-color="#2C80FF"/>
</linearGradient>
<linearGradient id="paint14_linear_9430_13436" x1="93.0887" y1="0.4375" x2="93.0887" y2="272.269" gradientUnits="userSpaceOnUse">
<stop stop-color="#00DBD2"/>
<stop offset="1" stop-color="#2C80FF"/>
</linearGradient>
<linearGradient id="paint15_linear_9430_13436" x1="91.2693" y1="0.476562" x2="91.2693" y2="270.872" gradientUnits="userSpaceOnUse">
<stop stop-color="#00DBD2"/>
<stop offset="1" stop-color="#2C80FF"/>
</linearGradient>
<linearGradient id="paint16_linear_9430_13436" x1="89.4477" y1="0.507812" x2="89.4477" y2="269.475" gradientUnits="userSpaceOnUse">
<stop stop-color="#00DBD2"/>
<stop offset="1" stop-color="#2C80FF"/>
</linearGradient>
<linearGradient id="paint17_linear_9430_13436" x1="87.6128" y1="0.507812" x2="87.6128" y2="268.061" gradientUnits="userSpaceOnUse">
<stop stop-color="#00DBD2"/>
<stop offset="1" stop-color="#2C80FF"/>
</linearGradient>
<linearGradient id="paint18_linear_9430_13436" x1="85.799" y1="0.523437" x2="85.799" y2="266.659" gradientUnits="userSpaceOnUse">
<stop stop-color="#00DBD2"/>
<stop offset="1" stop-color="#2C80FF"/>
</linearGradient>
<linearGradient id="paint19_linear_9430_13436" x1="83.9718" y1="0.5625" x2="83.9718" y2="265.271" gradientUnits="userSpaceOnUse">
<stop stop-color="#00DBD2"/>
<stop offset="1" stop-color="#2C80FF"/>
</linearGradient>
<linearGradient id="paint20_linear_9430_13436" x1="82.1668" y1="0.578125" x2="82.1668" y2="263.874" gradientUnits="userSpaceOnUse">
<stop stop-color="#00DBD2"/>
<stop offset="1" stop-color="#2C80FF"/>
</linearGradient>
<linearGradient id="paint21_linear_9430_13436" x1="80.3503" y1="0.617187" x2="80.3503" y2="262.48" gradientUnits="userSpaceOnUse">
<stop stop-color="#00DBD2"/>
<stop offset="1" stop-color="#2C80FF"/>
</linearGradient>
<linearGradient id="paint22_linear_9430_13436" x1="78.5365" y1="0.648437" x2="78.5365" y2="261.085" gradientUnits="userSpaceOnUse">
<stop stop-color="#00DBD2"/>
<stop offset="1" stop-color="#2C80FF"/>
</linearGradient>
<linearGradient id="paint23_linear_9430_13436" x1="76.7094" y1="0.664062" x2="76.7094" y2="259.689" gradientUnits="userSpaceOnUse">
<stop stop-color="#00DBD2"/>
<stop offset="1" stop-color="#2C80FF"/>
</linearGradient>
<linearGradient id="paint24_linear_9430_13436" x1="74.8956" y1="0.703125" x2="74.8956" y2="258.296" gradientUnits="userSpaceOnUse">
<stop stop-color="#00DBD2"/>
<stop offset="1" stop-color="#2C80FF"/>
</linearGradient>
<linearGradient id="paint25_linear_9430_13436" x1="73.0764" y1="0.71875" x2="73.0764" y2="256.905" gradientUnits="userSpaceOnUse">
<stop stop-color="#00DBD2"/>
<stop offset="1" stop-color="#2C80FF"/>
</linearGradient>
<linearGradient id="paint26_linear_9430_13436" x1="71.2548" y1="0.757812" x2="71.2548" y2="255.521" gradientUnits="userSpaceOnUse">
<stop stop-color="#00DBD2"/>
<stop offset="1" stop-color="#2C80FF"/>
</linearGradient>
<linearGradient id="paint27_linear_9430_13436" x1="69.4355" y1="0.773437" x2="69.4355" y2="254.119" gradientUnits="userSpaceOnUse">
<stop stop-color="#00DBD2"/>
<stop offset="1" stop-color="#2C80FF"/>
</linearGradient>
<linearGradient id="paint28_linear_9430_13436" x1="67.6246" y1="0.804687" x2="67.6246" y2="252.727" gradientUnits="userSpaceOnUse">
<stop stop-color="#00DBD2"/>
<stop offset="1" stop-color="#2C80FF"/>
</linearGradient>
<linearGradient id="paint29_linear_9430_13436" x1="65.8053" y1="0.84375" x2="65.8053" y2="251.344" gradientUnits="userSpaceOnUse">
<stop stop-color="#00DBD2"/>
<stop offset="1" stop-color="#2C80FF"/>
</linearGradient>
<linearGradient id="paint30_linear_9430_13436" x1="63.9838" y1="0.859375" x2="63.9838" y2="249.951" gradientUnits="userSpaceOnUse">
<stop stop-color="#00DBD2"/>
<stop offset="1" stop-color="#2C80FF"/>
</linearGradient>
<linearGradient id="paint31_linear_9430_13436" x1="62.1646" y1="0.898437" x2="62.1646" y2="248.561" gradientUnits="userSpaceOnUse">
<stop stop-color="#00DBD2"/>
<stop offset="1" stop-color="#2C80FF"/>
</linearGradient>
<linearGradient id="paint32_linear_9430_13436" x1="60.3508" y1="0.914062" x2="60.3508" y2="247.173" gradientUnits="userSpaceOnUse">
<stop stop-color="#00DBD2"/>
<stop offset="1" stop-color="#2C80FF"/>
</linearGradient>
<linearGradient id="paint33_linear_9430_13436" x1="58.5316" y1="0.929687" x2="58.5316" y2="245.781" gradientUnits="userSpaceOnUse">
<stop stop-color="#00DBD2"/>
<stop offset="1" stop-color="#2C80FF"/>
</linearGradient>
<linearGradient id="paint34_linear_9430_13436" x1="56.7189" y1="0.96875" x2="56.7189" y2="244.392" gradientUnits="userSpaceOnUse">
<stop stop-color="#00DBD2"/>
<stop offset="1" stop-color="#2C80FF"/>
</linearGradient>
<linearGradient id="paint35_linear_9430_13436" x1="54.9025" y1="1" x2="54.9025" y2="243.004" gradientUnits="userSpaceOnUse">
<stop stop-color="#00DBD2"/>
<stop offset="1" stop-color="#2C80FF"/>
</linearGradient>
<linearGradient id="paint36_linear_9430_13436" x1="53.0888" y1="1.01562" x2="53.0888" y2="241.613" gradientUnits="userSpaceOnUse">
<stop stop-color="#00DBD2"/>
<stop offset="1" stop-color="#2C80FF"/>
</linearGradient>
<linearGradient id="paint37_linear_9430_13436" x1="51.2618" y1="1.05469" x2="51.2618" y2="240.225" gradientUnits="userSpaceOnUse">
<stop stop-color="#00DBD2"/>
<stop offset="1" stop-color="#2C80FF"/>
</linearGradient>
<linearGradient id="paint38_linear_9430_13436" x1="49.4482" y1="1.08594" x2="49.4482" y2="238.838" gradientUnits="userSpaceOnUse">
<stop stop-color="#00DBD2"/>
<stop offset="1" stop-color="#2C80FF"/>
</linearGradient>
<linearGradient id="paint39_linear_9430_13436" x1="47.629" y1="1.08594" x2="47.629" y2="237.45" gradientUnits="userSpaceOnUse">
<stop stop-color="#00DBD2"/>
<stop offset="1" stop-color="#2C80FF"/>
</linearGradient>
<linearGradient id="paint40_linear_9430_13436" x1="45.8154" y1="1.125" x2="45.8154" y2="236.064" gradientUnits="userSpaceOnUse">
<stop stop-color="#00DBD2"/>
<stop offset="1" stop-color="#2C80FF"/>
</linearGradient>
<linearGradient id="paint41_linear_9430_13436" x1="43.9884" y1="1.15625" x2="43.9884" y2="234.678" gradientUnits="userSpaceOnUse">
<stop stop-color="#00DBD2"/>
<stop offset="1" stop-color="#2C80FF"/>
</linearGradient>
<linearGradient id="paint42_linear_9430_13436" x1="42.1776" y1="1.15625" x2="42.1776" y2="233.273" gradientUnits="userSpaceOnUse">
<stop stop-color="#00DBD2"/>
<stop offset="1" stop-color="#2C80FF"/>
</linearGradient>
<linearGradient id="paint43_linear_9430_13436" x1="40.335" y1="1.19531" x2="40.335" y2="231.888" gradientUnits="userSpaceOnUse">
<stop stop-color="#00DBD2"/>
<stop offset="1" stop-color="#2C80FF"/>
</linearGradient>
<linearGradient id="paint44_linear_9430_13436" x1="38.5214" y1="1.22656" x2="38.5214" y2="230.503" gradientUnits="userSpaceOnUse">
<stop stop-color="#00DBD2"/>
<stop offset="1" stop-color="#2C80FF"/>
</linearGradient>
<linearGradient id="paint45_linear_9430_13436" x1="36.7023" y1="1.25" x2="36.7023" y2="229.123" gradientUnits="userSpaceOnUse">
<stop stop-color="#00DBD2"/>
<stop offset="1" stop-color="#2C80FF"/>
</linearGradient>
<linearGradient id="paint46_linear_9430_13436" x1="34.8887" y1="1.26562" x2="34.8887" y2="227.733" gradientUnits="userSpaceOnUse">
<stop stop-color="#00DBD2"/>
<stop offset="1" stop-color="#2C80FF"/>
</linearGradient>
<linearGradient id="paint47_linear_9430_13436" x1="33.0618" y1="1.29687" x2="33.0618" y2="226.349" gradientUnits="userSpaceOnUse">
<stop stop-color="#00DBD2"/>
<stop offset="1" stop-color="#2C80FF"/>
</linearGradient>
<linearGradient id="paint48_linear_9430_13436" x1="31.2571" y1="1.33594" x2="31.2571" y2="224.974" gradientUnits="userSpaceOnUse">
<stop stop-color="#00DBD2"/>
<stop offset="1" stop-color="#2C80FF"/>
</linearGradient>
<linearGradient id="paint49_linear_9430_13436" x1="29.438" y1="1.35156" x2="29.438" y2="223.587" gradientUnits="userSpaceOnUse">
<stop stop-color="#00DBD2"/>
<stop offset="1" stop-color="#2C80FF"/>
</linearGradient>
<linearGradient id="paint50_linear_9430_13436" x1="27.6272" y1="1.39062" x2="27.6272" y2="222.204" gradientUnits="userSpaceOnUse">
<stop stop-color="#00DBD2"/>
<stop offset="1" stop-color="#2C80FF"/>
</linearGradient>
<linearGradient id="paint51_linear_9430_13436" x1="25.8004" y1="1.42187" x2="25.8004" y2="220.822" gradientUnits="userSpaceOnUse">
<stop stop-color="#00DBD2"/>
<stop offset="1" stop-color="#2C80FF"/>
</linearGradient>
<linearGradient id="paint52_linear_9430_13436" x1="23.9869" y1="1.4375" x2="23.9869" y2="219.437" gradientUnits="userSpaceOnUse">
<stop stop-color="#00DBD2"/>
<stop offset="1" stop-color="#2C80FF"/>
</linearGradient>
<linearGradient id="paint53_linear_9430_13436" x1="22.1678" y1="1.47656" x2="22.1678" y2="218.055" gradientUnits="userSpaceOnUse">
<stop stop-color="#00DBD2"/>
<stop offset="1" stop-color="#2C80FF"/>
</linearGradient>
<linearGradient id="paint54_linear_9430_13436" x1="20.3466" y1="1.49219" x2="20.3466" y2="216.676" gradientUnits="userSpaceOnUse">
<stop stop-color="#00DBD2"/>
<stop offset="1" stop-color="#2C80FF"/>
</linearGradient>
<linearGradient id="paint55_linear_9430_13436" x1="18.5276" y1="1.50781" x2="18.5276" y2="215.291" gradientUnits="userSpaceOnUse">
<stop stop-color="#00DBD2"/>
<stop offset="1" stop-color="#2C80FF"/>
</linearGradient>
<linearGradient id="paint56_linear_9430_13436" x1="16.7142" y1="1.54687" x2="16.7142" y2="213.911" gradientUnits="userSpaceOnUse">
<stop stop-color="#00DBD2"/>
<stop offset="1" stop-color="#2C80FF"/>
</linearGradient>
<linearGradient id="paint57_linear_9430_13436" x1="14.8979" y1="1.57812" x2="14.8979" y2="212.53" gradientUnits="userSpaceOnUse">
<stop stop-color="#00DBD2"/>
<stop offset="1" stop-color="#2C80FF"/>
</linearGradient>
<linearGradient id="paint58_linear_9430_13436" x1="13.0767" y1="1.60156" x2="13.0767" y2="211.155" gradientUnits="userSpaceOnUse">
<stop stop-color="#00DBD2"/>
<stop offset="1" stop-color="#2C80FF"/>
</linearGradient>
<linearGradient id="paint59_linear_9430_13436" x1="11.2578" y1="1.63281" x2="11.2578" y2="209.767" gradientUnits="userSpaceOnUse">
<stop stop-color="#00DBD2"/>
<stop offset="1" stop-color="#2C80FF"/>
</linearGradient>
<linearGradient id="paint60_linear_9430_13436" x1="9.4444" y1="1.67187" x2="9.4444" y2="208.396" gradientUnits="userSpaceOnUse">
<stop stop-color="#00DBD2"/>
<stop offset="1" stop-color="#2C80FF"/>
</linearGradient>
<linearGradient id="paint61_linear_9430_13436" x1="7.63426" y1="1.67187" x2="7.63426" y2="207.015" gradientUnits="userSpaceOnUse">
<stop stop-color="#00DBD2"/>
<stop offset="1" stop-color="#2C80FF"/>
</linearGradient>
<linearGradient id="paint62_linear_9430_13436" x1="5.81314" y1="1.70312" x2="5.81314" y2="205.629" gradientUnits="userSpaceOnUse">
<stop stop-color="#00DBD2"/>
<stop offset="1" stop-color="#2C80FF"/>
</linearGradient>
<linearGradient id="paint63_linear_9430_13436" x1="3.99425" y1="1.74219" x2="3.99425" y2="204.258" gradientUnits="userSpaceOnUse">
<stop stop-color="#00DBD2"/>
<stop offset="1" stop-color="#2C80FF"/>
</linearGradient>
<linearGradient id="paint64_linear_9430_13436" x1="2.18369" y1="1.75781" x2="2.18369" y2="202.876" gradientUnits="userSpaceOnUse">
<stop stop-color="#00DBD2"/>
<stop offset="1" stop-color="#2C80FF"/>
</linearGradient>
<linearGradient id="paint65_linear_9430_13436" x1="0.35701" y1="1.78906" x2="0.35701" y2="201.491" gradientUnits="userSpaceOnUse">
<stop stop-color="#00DBD2"/>
<stop offset="1" stop-color="#2C80FF"/>
</linearGradient>
<linearGradient id="paint66_linear_9430_13436" x1="-1.45624" y1="1.82812" x2="-1.45624" y2="200.121" gradientUnits="userSpaceOnUse">
<stop stop-color="#00DBD2"/>
<stop offset="1" stop-color="#2C80FF"/>
</linearGradient>
<linearGradient id="paint67_linear_9430_13436" x1="-3.27509" y1="1.84375" x2="-3.27509" y2="198.728" gradientUnits="userSpaceOnUse">
<stop stop-color="#00DBD2"/>
<stop offset="1" stop-color="#2C80FF"/>
</linearGradient>
<linearGradient id="paint68_linear_9430_13436" x1="-5.08826" y1="1.84375" x2="-5.08826" y2="197.342" gradientUnits="userSpaceOnUse">
<stop stop-color="#00DBD2"/>
<stop offset="1" stop-color="#2C80FF"/>
</linearGradient>
<linearGradient id="paint69_linear_9430_13436" x1="-6.93048" y1="1.88281" x2="-6.93048" y2="195.973" gradientUnits="userSpaceOnUse">
<stop stop-color="#00DBD2"/>
<stop offset="1" stop-color="#2C80FF"/>
</linearGradient>
<linearGradient id="paint70_linear_9430_13436" x1="-8.74364" y1="1.91406" x2="-8.74364" y2="194.597" gradientUnits="userSpaceOnUse">
<stop stop-color="#00DBD2"/>
<stop offset="1" stop-color="#2C80FF"/>
</linearGradient>
<linearGradient id="paint71_linear_9430_13436" x1="-10.5597" y1="1.92969" x2="-10.5597" y2="193.218" gradientUnits="userSpaceOnUse">
<stop stop-color="#00DBD2"/>
<stop offset="1" stop-color="#2C80FF"/>
</linearGradient>
<clipPath id="clip0_9430_13436">
<rect width="284" height="292" fill="white"/>
</clipPath>
<clipPath id="clip1_9430_13436">
<rect width="437" height="292" fill="white" transform="translate(-153)"/>
</clipPath>
</defs>
</svg>
