<svg width="502" height="323" viewBox="0 0 502 323" fill="none" xmlns="http://www.w3.org/2000/svg">
<g clip-path="url(#clip0_9432_13437)">
<g clip-path="url(#clip1_9432_13437)">
<path d="M570.937 66.5141C570.937 66.5141 415.212 -24.4262 384.708 35.2991C354.204 95.0244 444.118 163.112 342.667 135.658C241.19 108.197 -48.6057 198.873 7.23443 347.281" stroke="url(#paint0_linear_9432_13437)" stroke-width="0.13" stroke-miterlimit="10"/>
<path d="M572.492 69.3142C572.492 69.3142 416.728 -21.9879 386.217 37.7627C355.713 97.4879 445.628 165.575 344.177 138.121C242.7 110.66 -45.2033 200.33 10.1731 348.045" stroke="url(#paint1_linear_9432_13437)" stroke-width="0.13" stroke-miterlimit="10"/>
<path d="M574.039 72.1083C574.039 72.1083 418.231 -19.5303 387.727 40.1949C357.223 99.9202 447.137 168.008 345.686 140.553C244.209 113.092 -41.8008 201.755 13.137 348.785" stroke="url(#paint2_linear_9432_13437)" stroke-width="0.13" stroke-miterlimit="10"/>
<path d="M575.587 74.9023C575.587 74.9023 419.74 -17.0981 389.236 42.6271C358.733 102.352 448.647 170.44 347.196 142.986C245.719 115.525 -38.3981 203.18 16.0758 349.518" stroke="url(#paint3_linear_9432_13437)" stroke-width="0.13" stroke-miterlimit="10"/>
<path d="M577.141 77.6928C577.141 77.6928 421.255 -14.6694 390.745 45.0811C360.241 104.806 450.155 172.894 348.704 145.44C247.227 117.979 -35.0034 204.652 19.0319 350.305" stroke="url(#paint4_linear_9432_13437)" stroke-width="0.13" stroke-miterlimit="10"/>
<path d="M578.689 80.4946C578.689 80.4946 422.758 -12.2041 392.254 47.5212C361.75 107.246 451.665 175.334 350.214 147.88C248.737 120.419 -31.6009 206.085 21.9707 351.046" stroke="url(#paint5_linear_9432_13437)" stroke-width="0.13" stroke-miterlimit="10"/>
<path d="M580.244 83.2887C580.244 83.2887 424.275 -9.77184 393.772 49.9534C363.268 109.679 453.182 177.766 351.731 150.312C250.254 122.851 -28.1905 207.511 24.9424 351.785" stroke="url(#paint6_linear_9432_13437)" stroke-width="0.13" stroke-miterlimit="10"/>
<path d="M581.792 86.0827C581.792 86.0827 425.785 -7.3396 395.256 52.3789C364.752 112.104 454.667 180.192 353.215 152.737C251.739 125.276 -24.8453 208.948 27.8559 352.512" stroke="url(#paint7_linear_9432_13437)" stroke-width="0.13" stroke-miterlimit="10"/>
<path d="M583.347 88.8751C583.347 88.8751 427.301 -4.909 396.765 54.8347C366.262 114.56 456.176 182.647 354.725 155.193C253.248 127.732 -21.4427 210.396 30.7946 353.268" stroke="url(#paint8_linear_9432_13437)" stroke-width="0.13" stroke-miterlimit="10"/>
<path d="M584.895 91.6691C584.895 91.6691 428.804 -2.45161 398.275 57.2669C367.771 116.992 457.686 185.08 356.234 157.625C254.758 130.164 -18.0402 211.821 33.7586 354.008" stroke="url(#paint9_linear_9432_13437)" stroke-width="0.13" stroke-miterlimit="10"/>
<path d="M586.442 94.4632C586.442 94.4632 430.313 -0.0192973 399.784 59.6992C369.281 119.424 459.195 187.512 357.744 160.058C256.267 132.597 -14.6377 213.247 36.6973 354.741" stroke="url(#paint10_linear_9432_13437)" stroke-width="0.13" stroke-miterlimit="10"/>
<path d="M587.996 97.2615C587.996 97.2615 431.829 2.41718 401.293 62.1609C370.789 121.886 460.704 189.974 359.252 162.519C257.776 135.058 -11.2429 214.727 39.6534 355.536" stroke="url(#paint11_linear_9432_13437)" stroke-width="0.13" stroke-miterlimit="10"/>
<path d="M589.544 100.056C589.544 100.056 433.331 4.87465 402.802 64.5932C372.299 124.318 462.213 192.406 360.762 164.952C259.285 137.491 -7.84042 216.152 42.5921 356.269" stroke="url(#paint12_linear_9432_13437)" stroke-width="0.13" stroke-miterlimit="10"/>
<path d="M591.099 102.85C591.099 102.85 434.824 7.30016 404.32 67.0254C373.816 126.751 463.73 194.838 362.279 167.384C260.802 139.923 -4.43009 217.577 45.5639 357.009" stroke="url(#paint13_linear_9432_13437)" stroke-width="0.13" stroke-miterlimit="10"/>
<path d="M592.646 105.65C592.646 105.65 436.332 9.73846 405.821 69.489C375.318 129.214 465.232 197.302 363.781 169.847C262.304 142.386 -1.06058 219.027 48.4948 357.773" stroke="url(#paint14_linear_9432_13437)" stroke-width="0.13" stroke-miterlimit="10"/>
<path d="M594.194 108.444C594.194 108.444 437.835 12.196 407.331 71.9213C376.827 131.647 466.742 199.734 365.29 172.28C263.814 144.819 2.33528 220.477 51.4588 358.513" stroke="url(#paint15_linear_9432_13437)" stroke-width="0.13" stroke-miterlimit="10"/>
<path d="M595.75 111.238C595.75 111.238 439.352 14.6282 408.848 74.3535C378.344 134.079 468.259 202.166 366.808 174.712C265.331 147.251 5.74566 221.902 54.4054 359.246" stroke="url(#paint16_linear_9432_13437)" stroke-width="0.13" stroke-miterlimit="10"/>
<path d="M597.32 114.061C597.32 114.061 440.884 17.0899 410.373 76.8404C379.87 136.566 469.784 204.653 368.333 177.199C266.856 149.738 9.16371 223.382 57.3849 360.041" stroke="url(#paint17_linear_9432_13437)" stroke-width="0.13" stroke-miterlimit="10"/>
<path d="M598.867 116.861C598.867 116.861 442.386 19.5534 411.882 79.2787C381.378 139.004 471.293 207.091 369.841 179.637C268.365 152.176 12.5652 224.814 60.3158 360.805" stroke="url(#paint18_linear_9432_13437)" stroke-width="0.13" stroke-miterlimit="10"/>
<path d="M600.414 119.655C600.414 119.655 443.895 21.9857 413.391 81.711C382.888 141.436 472.802 209.524 371.351 182.069C269.874 154.608 15.961 226.264 63.2797 361.545" stroke="url(#paint19_linear_9432_13437)" stroke-width="0.13" stroke-miterlimit="10"/>
<path d="M601.969 122.448C601.969 122.448 445.411 24.4162 414.876 84.1599C384.372 143.885 474.286 211.973 372.835 184.518C271.358 157.057 19.3383 227.706 66.1932 362.295" stroke="url(#paint20_linear_9432_13437)" stroke-width="0.13" stroke-miterlimit="10"/>
<path d="M603.517 125.242C603.517 125.242 446.914 26.8737 416.385 86.5922C385.881 146.317 475.796 214.405 374.344 186.951C272.868 159.49 22.7156 229.124 69.1572 363.034" stroke="url(#paint21_linear_9432_13437)" stroke-width="0.13" stroke-miterlimit="10"/>
<path d="M605.073 128.036C605.073 128.036 448.432 29.3059 417.903 89.0245C387.399 148.75 477.313 216.837 375.862 189.383C274.385 161.922 26.126 230.55 72.1037 363.768" stroke="url(#paint22_linear_9432_13437)" stroke-width="0.13" stroke-miterlimit="10"/>
<path d="M606.619 130.836C606.619 130.836 449.94 31.7442 419.404 91.488C388.9 151.213 478.815 219.301 377.363 191.846C275.887 164.385 29.5139 232.031 75.0599 364.539" stroke="url(#paint23_linear_9432_13437)" stroke-width="0.13" stroke-miterlimit="10"/>
<path d="M608.167 133.63C608.167 133.63 451.443 34.2018 420.914 93.9203C390.41 153.646 480.324 221.733 378.873 194.279C277.396 166.818 32.9165 233.457 77.9986 365.272" stroke="url(#paint24_linear_9432_13437)" stroke-width="0.13" stroke-miterlimit="10"/>
<path d="M609.722 136.422C609.722 136.422 452.959 36.6323 422.43 96.3508C391.926 156.076 481.841 224.163 380.389 196.709C278.913 169.248 36.3257 234.88 80.9626 366.035" stroke="url(#paint25_linear_9432_13437)" stroke-width="0.13" stroke-miterlimit="10"/>
<path d="M611.27 139.216C611.27 139.216 454.469 39.0645 423.94 98.783C393.436 158.508 483.35 226.596 381.899 199.142C280.422 171.681 39.7283 236.305 83.9013 366.768" stroke="url(#paint26_linear_9432_13437)" stroke-width="0.13" stroke-miterlimit="10"/>
<path d="M612.824 142.016C612.824 142.016 455.953 41.5212 425.449 101.246C394.945 160.972 484.86 229.059 383.408 201.605C281.932 174.144 43.124 237.787 86.8652 367.539" stroke="url(#paint27_linear_9432_13437)" stroke-width="0.13" stroke-miterlimit="10"/>
<path d="M614.372 144.81C614.372 144.81 457.462 43.9535 426.959 103.679C396.455 163.404 486.369 231.491 384.918 204.037C283.441 176.576 46.5013 239.205 89.8039 368.272" stroke="url(#paint28_linear_9432_13437)" stroke-width="0.13" stroke-miterlimit="10"/>
<path d="M615.928 147.605C615.928 147.605 458.98 46.3857 428.476 106.111C397.972 165.836 487.887 233.924 386.435 206.47C284.959 179.009 49.9117 240.631 92.7757 369.012" stroke="url(#paint29_linear_9432_13437)" stroke-width="0.13" stroke-miterlimit="10"/>
<path d="M617.475 150.397C617.475 150.397 460.488 48.8162 429.978 108.567C399.474 168.292 489.388 236.379 387.937 208.925C286.46 181.464 53.3065 242.079 95.7066 369.769" stroke="url(#paint30_linear_9432_13437)" stroke-width="0.13" stroke-miterlimit="10"/>
<path d="M619.022 153.191C619.022 153.191 461.991 51.2737 431.487 110.999C400.983 170.724 490.898 238.812 389.446 211.358C287.97 183.897 56.7022 243.53 98.6706 370.509" stroke="url(#paint31_linear_9432_13437)" stroke-width="0.13" stroke-miterlimit="10"/>
<path d="M620.577 155.991C620.577 155.991 463.507 53.712 433.003 113.437C402.5 173.163 492.414 241.25 390.963 213.796C289.486 186.335 60.1115 244.961 101.609 371.273" stroke="url(#paint32_linear_9432_13437)" stroke-width="0.13" stroke-miterlimit="10"/>
<path d="M622.124 158.783C622.124 158.783 465.016 56.1425 434.505 115.893C404.001 175.618 493.916 243.706 392.464 216.251C290.988 188.791 63.5062 246.41 104.565 372.036" stroke="url(#paint33_linear_9432_13437)" stroke-width="0.13" stroke-miterlimit="10"/>
<path d="M623.679 161.577C623.679 161.577 466.526 58.6 435.997 118.318C405.493 178.044 495.408 246.131 393.956 218.677C292.48 191.216 66.8913 247.828 107.487 372.763" stroke="url(#paint34_linear_9432_13437)" stroke-width="0.13" stroke-miterlimit="10"/>
<path d="M625.227 164.371C625.227 164.371 468.036 61.0322 437.507 120.751C407.003 180.476 496.917 248.563 395.466 221.109C293.989 193.648 70.2618 249.272 110.451 373.502" stroke="url(#paint35_linear_9432_13437)" stroke-width="0.13" stroke-miterlimit="10"/>
<path d="M626.782 167.171C626.782 167.171 469.552 63.4705 439.016 123.214C408.512 182.94 498.427 251.027 396.975 223.573C295.499 196.112 73.6644 250.728 113.389 374.267" stroke="url(#paint36_linear_9432_13437)" stroke-width="0.13" stroke-miterlimit="10"/>
<path d="M628.33 169.965C628.33 169.965 471.055 65.928 440.526 125.647C410.022 185.372 499.936 253.459 398.485 226.005C297.008 198.544 77.067 252.154 116.353 375.007" stroke="url(#paint37_linear_9432_13437)" stroke-width="0.13" stroke-miterlimit="10"/>
<path d="M629.877 172.76C629.877 172.76 472.564 68.3603 442.035 128.079C411.531 187.804 501.446 255.892 399.994 228.437C298.518 200.976 80.4695 253.579 119.292 375.74" stroke="url(#paint38_linear_9432_13437)" stroke-width="0.13" stroke-miterlimit="10"/>
<path d="M631.431 175.558C631.431 175.558 474.079 70.7968 443.544 130.541C413.04 190.266 502.954 258.353 401.503 230.899C300.026 203.438 83.8642 255.059 122.248 376.534" stroke="url(#paint39_linear_9432_13437)" stroke-width="0.13" stroke-miterlimit="10"/>
<path d="M632.979 178.352C632.979 178.352 475.557 73.2475 445.053 132.973C414.549 192.698 504.464 260.786 403.012 233.331C301.536 205.87 87.2667 256.484 125.187 377.267" stroke="url(#paint40_linear_9432_13437)" stroke-width="0.13" stroke-miterlimit="10"/>
<path d="M634.535 181.146C634.535 181.146 477.074 75.6798 446.571 135.405C416.067 195.13 505.981 263.218 404.53 235.764C303.053 208.303 90.6771 257.909 128.159 378.007" stroke="url(#paint41_linear_9432_13437)" stroke-width="0.13" stroke-miterlimit="10"/>
<path d="M636.074 183.962C636.074 183.962 478.575 78.1337 448.064 137.884C417.561 197.61 507.475 265.697 406.024 238.243C304.547 210.782 94.0388 259.375 131.082 378.787" stroke="url(#paint42_linear_9432_13437)" stroke-width="0.13" stroke-miterlimit="10"/>
<path d="M637.653 186.764C637.653 186.764 480.109 80.599 449.605 140.324C419.101 200.05 509.016 268.137 407.564 240.683C306.088 213.222 97.4658 260.833 134.077 379.535" stroke="url(#paint43_linear_9432_13437)" stroke-width="0.13" stroke-miterlimit="10"/>
<path d="M639.2 189.565C639.2 189.565 481.619 83.039 451.115 142.764C420.611 202.49 510.525 270.577 409.074 243.123C307.597 215.662 100.868 262.266 137.016 380.276" stroke="url(#paint44_linear_9432_13437)" stroke-width="0.13" stroke-miterlimit="10"/>
<path d="M640.755 192.358C640.755 192.358 483.135 85.4696 452.624 145.22C422.12 204.945 512.035 273.033 410.583 245.579C309.107 218.118 104.271 263.715 139.98 381.039" stroke="url(#paint45_linear_9432_13437)" stroke-width="0.13" stroke-miterlimit="10"/>
<path d="M642.302 195.15C642.302 195.15 484.636 87.9253 454.133 147.651C423.629 207.376 513.543 275.463 412.092 248.009C310.615 220.548 107.672 265.138 142.911 381.796" stroke="url(#paint46_linear_9432_13437)" stroke-width="0.13" stroke-miterlimit="10"/>
<path d="M643.85 197.944C643.85 197.944 486.146 90.3575 455.642 150.083C425.138 209.808 515.053 277.896 413.601 250.441C312.125 222.98 111.068 266.588 145.875 382.536" stroke="url(#paint47_linear_9432_13437)" stroke-width="0.13" stroke-miterlimit="10"/>
<path d="M645.405 200.746C645.405 200.746 487.663 92.7976 457.134 152.516C426.63 212.241 516.545 280.329 415.094 252.875C313.617 225.414 114.453 268.015 148.796 383.27" stroke="url(#paint48_linear_9432_13437)" stroke-width="0.13" stroke-miterlimit="10"/>
<path d="M646.952 203.538C646.952 203.538 489.172 95.2281 458.636 154.972C428.132 214.697 518.047 282.785 416.595 255.33C315.119 227.869 117.848 269.463 151.752 384.033" stroke="url(#paint49_linear_9432_13437)" stroke-width="0.13" stroke-miterlimit="10"/>
<path d="M648.508 206.332C648.508 206.332 490.682 97.6856 460.153 157.404C429.649 217.129 519.564 285.217 418.113 257.763C316.636 230.302 121.233 270.882 154.699 384.766" stroke="url(#paint50_linear_9432_13437)" stroke-width="0.13" stroke-miterlimit="10"/>
<path d="M650.056 209.126C650.056 209.126 492.192 100.118 461.663 159.836C431.159 219.562 521.073 287.649 419.622 260.195C318.145 232.734 124.629 272.332 157.662 385.506" stroke="url(#paint51_linear_9432_13437)" stroke-width="0.13" stroke-miterlimit="10"/>
<path d="M651.602 211.919C651.602 211.919 493.7 102.548 463.165 162.292C432.661 222.017 522.575 290.105 421.124 262.651C319.647 235.19 128.024 273.781 160.593 386.263" stroke="url(#paint52_linear_9432_13437)" stroke-width="0.13" stroke-miterlimit="10"/>
<path d="M653.158 214.72C653.158 214.72 495.211 105.014 464.682 164.732C434.178 224.457 524.092 292.545 422.641 265.091C321.165 237.63 131.434 275.214 163.565 387.01" stroke="url(#paint53_linear_9432_13437)" stroke-width="0.13" stroke-miterlimit="10"/>
<path d="M654.705 217.513C654.705 217.513 496.694 107.437 466.19 167.163C435.687 226.888 525.601 294.975 424.15 267.521C322.673 240.06 134.835 276.637 166.496 387.767" stroke="url(#paint54_linear_9432_13437)" stroke-width="0.13" stroke-miterlimit="10"/>
<path d="M656.259 220.305C656.259 220.305 498.21 109.868 467.7 169.618C437.196 229.344 527.11 297.431 425.659 269.977C324.183 242.516 138.231 278.111 169.46 388.53" stroke="url(#paint55_linear_9432_13437)" stroke-width="0.13" stroke-miterlimit="10"/>
<path d="M657.807 223.099C657.807 223.099 499.713 112.325 469.209 172.051C438.706 231.776 528.62 299.863 427.169 272.409C325.692 244.948 141.634 279.537 172.399 389.263" stroke="url(#paint56_linear_9432_13437)" stroke-width="0.13" stroke-miterlimit="10"/>
<path d="M659.355 225.901C659.355 225.901 501.223 114.765 470.719 174.491C440.215 234.216 530.129 302.303 428.678 274.849C327.201 247.388 145.011 280.963 175.363 390.011" stroke="url(#paint57_linear_9432_13437)" stroke-width="0.13" stroke-miterlimit="10"/>
<path d="M660.91 228.693C660.91 228.693 502.739 117.196 472.228 176.946C441.725 236.672 531.639 304.759 430.188 277.305C328.711 249.844 148.414 282.412 178.301 390.767" stroke="url(#paint58_linear_9432_13437)" stroke-width="0.13" stroke-miterlimit="10"/>
<path d="M662.458 231.487C662.458 231.487 504.242 119.653 473.738 179.379C443.234 239.104 533.149 307.191 431.697 279.737C330.221 252.276 151.809 283.862 181.265 391.507" stroke="url(#paint59_linear_9432_13437)" stroke-width="0.13" stroke-miterlimit="10"/>
<path d="M664.013 234.281C664.013 234.281 505.759 122.086 475.255 181.811C444.751 241.536 534.666 309.624 433.214 282.169C331.738 254.708 155.22 285.287 184.212 392.24" stroke="url(#paint60_linear_9432_13437)" stroke-width="0.13" stroke-miterlimit="10"/>
<path d="M665.559 237.08C665.559 237.08 507.266 124.522 476.731 184.266C446.227 243.991 536.141 312.079 434.69 284.624C333.213 257.163 158.588 286.735 187.135 393.028" stroke="url(#paint61_linear_9432_13437)" stroke-width="0.13" stroke-miterlimit="10"/>
<path d="M667.115 239.874C667.115 239.874 508.777 126.98 478.248 186.698C447.744 246.423 537.659 314.511 436.207 287.057C334.731 259.596 161.998 288.16 190.082 393.761" stroke="url(#paint62_linear_9432_13437)" stroke-width="0.13" stroke-miterlimit="10"/>
<path d="M668.662 242.668C668.662 242.668 510.287 129.412 479.757 189.13C449.254 248.856 539.168 316.943 437.717 289.489C336.24 262.028 165.394 289.611 193.045 394.501" stroke="url(#paint63_linear_9432_13437)" stroke-width="0.13" stroke-miterlimit="10"/>
<path d="M670.209 245.46C670.209 245.46 511.795 131.842 481.259 191.586C450.755 251.311 540.67 319.399 439.218 291.945C337.742 264.484 168.764 291.053 195.976 395.258" stroke="url(#paint64_linear_9432_13437)" stroke-width="0.13" stroke-miterlimit="10"/>
<path d="M671.765 248.262C671.765 248.262 513.306 134.308 482.776 194.026C452.273 253.751 542.187 321.839 440.736 294.385C339.259 266.924 172.174 292.486 198.948 396.005" stroke="url(#paint65_linear_9432_13437)" stroke-width="0.13" stroke-miterlimit="10"/>
<path d="M673.313 251.056C673.313 251.056 514.815 136.74 484.286 196.458C453.782 256.184 543.697 324.271 442.245 296.817C340.769 269.356 175.577 293.911 201.887 396.738" stroke="url(#paint66_linear_9432_13437)" stroke-width="0.13" stroke-miterlimit="10"/>
<path d="M674.861 253.873C674.861 253.873 516.325 139.196 485.796 198.914C455.292 258.639 545.206 326.727 443.755 299.273C342.278 271.812 178.972 295.385 204.851 397.502" stroke="url(#paint67_linear_9432_13437)" stroke-width="0.13" stroke-miterlimit="10"/>
<path d="M676.406 256.672C676.406 256.672 517.8 141.651 487.296 201.376C456.792 261.101 546.707 329.189 445.255 301.734C343.779 274.273 182.366 296.84 207.774 398.289" stroke="url(#paint68_linear_9432_13437)" stroke-width="0.13" stroke-miterlimit="10"/>
<path d="M677.985 259.474C677.985 259.474 519.341 144.091 488.837 203.816C458.333 263.541 548.248 331.629 446.796 304.174C345.32 276.713 185.8 298.273 210.769 399.037" stroke="url(#paint69_linear_9432_13437)" stroke-width="0.13" stroke-miterlimit="10"/>
<path d="M679.533 262.268C679.533 262.268 520.85 146.523 490.346 206.248C459.843 265.973 549.757 334.061 448.306 306.607C346.829 279.146 189.202 299.698 213.708 399.77" stroke="url(#paint70_linear_9432_13437)" stroke-width="0.13" stroke-miterlimit="10"/>
<path d="M681.088 265.06C681.088 265.06 522.367 148.953 491.856 208.704C461.352 268.429 551.267 336.517 449.815 309.062C348.339 281.601 192.573 301.165 216.672 400.534" stroke="url(#paint71_linear_9432_13437)" stroke-width="0.13" stroke-miterlimit="10"/>
</g>
</g>
<defs>
<linearGradient id="paint0_linear_9432_13437" x1="225.593" y1="405.79" x2="337.855" y2="-13.1746" gradientUnits="userSpaceOnUse">
<stop stop-color="#00DBD2"/>
<stop offset="1" stop-color="#2C80FF"/>
</linearGradient>
<linearGradient id="paint1_linear_9432_13437" x1="228.212" y1="406.468" x2="339.926" y2="-10.4545" gradientUnits="userSpaceOnUse">
<stop stop-color="#00DBD2"/>
<stop offset="1" stop-color="#2C80FF"/>
</linearGradient>
<linearGradient id="paint2_linear_9432_13437" x1="230.838" y1="407.117" x2="341.997" y2="-7.73355" gradientUnits="userSpaceOnUse">
<stop stop-color="#00DBD2"/>
<stop offset="1" stop-color="#2C80FF"/>
</linearGradient>
<linearGradient id="paint3_linear_9432_13437" x1="233.456" y1="407.765" x2="344.063" y2="-5.02635" gradientUnits="userSpaceOnUse">
<stop stop-color="#00DBD2"/>
<stop offset="1" stop-color="#2C80FF"/>
</linearGradient>
<linearGradient id="paint4_linear_9432_13437" x1="236.074" y1="408.461" x2="346.141" y2="-2.31593" gradientUnits="userSpaceOnUse">
<stop stop-color="#00DBD2"/>
<stop offset="1" stop-color="#2C80FF"/>
</linearGradient>
<linearGradient id="paint5_linear_9432_13437" x1="238.692" y1="409.116" x2="348.205" y2="0.408459" gradientUnits="userSpaceOnUse">
<stop stop-color="#00DBD2"/>
<stop offset="1" stop-color="#2C80FF"/>
</linearGradient>
<linearGradient id="paint6_linear_9432_13437" x1="241.326" y1="409.765" x2="350.287" y2="3.11548" gradientUnits="userSpaceOnUse">
<stop stop-color="#00DBD2"/>
<stop offset="1" stop-color="#2C80FF"/>
</linearGradient>
<linearGradient id="paint7_linear_9432_13437" x1="243.927" y1="410.408" x2="352.338" y2="5.81511" gradientUnits="userSpaceOnUse">
<stop stop-color="#00DBD2"/>
<stop offset="1" stop-color="#2C80FF"/>
</linearGradient>
<linearGradient id="paint8_linear_9432_13437" x1="246.545" y1="411.079" x2="354.41" y2="8.52237" gradientUnits="userSpaceOnUse">
<stop stop-color="#00DBD2"/>
<stop offset="1" stop-color="#2C80FF"/>
</linearGradient>
<linearGradient id="paint9_linear_9432_13437" x1="249.171" y1="411.728" x2="356.482" y2="11.238" gradientUnits="userSpaceOnUse">
<stop stop-color="#00DBD2"/>
<stop offset="1" stop-color="#2C80FF"/>
</linearGradient>
<linearGradient id="paint10_linear_9432_13437" x1="251.79" y1="412.375" x2="358.55" y2="13.94" gradientUnits="userSpaceOnUse">
<stop stop-color="#00DBD2"/>
<stop offset="1" stop-color="#2C80FF"/>
</linearGradient>
<linearGradient id="paint11_linear_9432_13437" x1="254.408" y1="413.079" x2="360.63" y2="16.6532" gradientUnits="userSpaceOnUse">
<stop stop-color="#00DBD2"/>
<stop offset="1" stop-color="#2C80FF"/>
</linearGradient>
<linearGradient id="paint12_linear_9432_13437" x1="257.026" y1="413.726" x2="362.695" y2="19.3646" gradientUnits="userSpaceOnUse">
<stop stop-color="#00DBD2"/>
<stop offset="1" stop-color="#2C80FF"/>
</linearGradient>
<linearGradient id="paint13_linear_9432_13437" x1="259.66" y1="414.375" x2="364.778" y2="22.0664" gradientUnits="userSpaceOnUse">
<stop stop-color="#00DBD2"/>
<stop offset="1" stop-color="#2C80FF"/>
</linearGradient>
<linearGradient id="paint14_linear_9432_13437" x1="262.266" y1="415.053" x2="366.84" y2="24.7763" gradientUnits="userSpaceOnUse">
<stop stop-color="#00DBD2"/>
<stop offset="1" stop-color="#2C80FF"/>
</linearGradient>
<linearGradient id="paint15_linear_9432_13437" x1="264.892" y1="415.702" x2="368.913" y2="27.4877" gradientUnits="userSpaceOnUse">
<stop stop-color="#00DBD2"/>
<stop offset="1" stop-color="#2C80FF"/>
</linearGradient>
<linearGradient id="paint16_linear_9432_13437" x1="267.518" y1="416.349" x2="370.99" y2="30.1853" gradientUnits="userSpaceOnUse">
<stop stop-color="#00DBD2"/>
<stop offset="1" stop-color="#2C80FF"/>
</linearGradient>
<linearGradient id="paint17_linear_9432_13437" x1="270.159" y1="417.053" x2="373.087" y2="32.9198" gradientUnits="userSpaceOnUse">
<stop stop-color="#00DBD2"/>
<stop offset="1" stop-color="#2C80FF"/>
</linearGradient>
<linearGradient id="paint18_linear_9432_13437" x1="272.769" y1="417.732" x2="375.152" y2="35.6331" gradientUnits="userSpaceOnUse">
<stop stop-color="#00DBD2"/>
<stop offset="1" stop-color="#2C80FF"/>
</linearGradient>
<linearGradient id="paint19_linear_9432_13437" x1="275.395" y1="418.381" x2="377.229" y2="38.3308" gradientUnits="userSpaceOnUse">
<stop stop-color="#00DBD2"/>
<stop offset="1" stop-color="#2C80FF"/>
</linearGradient>
<linearGradient id="paint20_linear_9432_13437" x1="278.001" y1="419.048" x2="379.291" y2="41.0266" gradientUnits="userSpaceOnUse">
<stop stop-color="#00DBD2"/>
<stop offset="1" stop-color="#2C80FF"/>
</linearGradient>
<linearGradient id="paint21_linear_9432_13437" x1="280.622" y1="419.696" x2="381.362" y2="43.733" gradientUnits="userSpaceOnUse">
<stop stop-color="#00DBD2"/>
<stop offset="1" stop-color="#2C80FF"/>
</linearGradient>
<linearGradient id="paint22_linear_9432_13437" x1="283.248" y1="420.344" x2="383.439" y2="46.4266" gradientUnits="userSpaceOnUse">
<stop stop-color="#00DBD2"/>
<stop offset="1" stop-color="#2C80FF"/>
</linearGradient>
<linearGradient id="paint23_linear_9432_13437" x1="285.866" y1="421.024" x2="385.514" y2="49.1339" gradientUnits="userSpaceOnUse">
<stop stop-color="#00DBD2"/>
<stop offset="1" stop-color="#2C80FF"/>
</linearGradient>
<linearGradient id="paint24_linear_9432_13437" x1="288.484" y1="421.671" x2="387.581" y2="51.8373" gradientUnits="userSpaceOnUse">
<stop stop-color="#00DBD2"/>
<stop offset="1" stop-color="#2C80FF"/>
</linearGradient>
<linearGradient id="paint25_linear_9432_13437" x1="291.11" y1="422.344" x2="389.666" y2="54.5293" gradientUnits="userSpaceOnUse">
<stop stop-color="#00DBD2"/>
<stop offset="1" stop-color="#2C80FF"/>
</linearGradient>
<linearGradient id="paint26_linear_9432_13437" x1="293.728" y1="422.991" x2="391.736" y2="57.2202" gradientUnits="userSpaceOnUse">
<stop stop-color="#00DBD2"/>
<stop offset="1" stop-color="#2C80FF"/>
</linearGradient>
<linearGradient id="paint27_linear_9432_13437" x1="296.354" y1="423.672" x2="393.817" y2="59.9362" gradientUnits="userSpaceOnUse">
<stop stop-color="#00DBD2"/>
<stop offset="1" stop-color="#2C80FF"/>
</linearGradient>
<linearGradient id="paint28_linear_9432_13437" x1="298.968" y1="424.318" x2="395.883" y2="62.6249" gradientUnits="userSpaceOnUse">
<stop stop-color="#00DBD2"/>
<stop offset="1" stop-color="#2C80FF"/>
</linearGradient>
<linearGradient id="paint29_linear_9432_13437" x1="301.601" y1="424.967" x2="397.97" y2="65.3161" gradientUnits="userSpaceOnUse">
<stop stop-color="#00DBD2"/>
<stop offset="1" stop-color="#2C80FF"/>
</linearGradient>
<linearGradient id="paint30_linear_9432_13437" x1="304.212" y1="425.638" x2="400.038" y2="68.0092" gradientUnits="userSpaceOnUse">
<stop stop-color="#00DBD2"/>
<stop offset="1" stop-color="#2C80FF"/>
</linearGradient>
<linearGradient id="paint31_linear_9432_13437" x1="306.837" y1="426.287" x2="402.114" y2="70.7105" gradientUnits="userSpaceOnUse">
<stop stop-color="#00DBD2"/>
<stop offset="1" stop-color="#2C80FF"/>
</linearGradient>
<linearGradient id="paint32_linear_9432_13437" x1="309.455" y1="426.965" x2="404.192" y2="73.4038" gradientUnits="userSpaceOnUse">
<stop stop-color="#00DBD2"/>
<stop offset="1" stop-color="#2C80FF"/>
</linearGradient>
<linearGradient id="paint33_linear_9432_13437" x1="312.073" y1="427.638" x2="406.268" y2="76.0974" gradientUnits="userSpaceOnUse">
<stop stop-color="#00DBD2"/>
<stop offset="1" stop-color="#2C80FF"/>
</linearGradient>
<linearGradient id="paint34_linear_9432_13437" x1="314.686" y1="428.282" x2="408.332" y2="78.7912" gradientUnits="userSpaceOnUse">
<stop stop-color="#00DBD2"/>
<stop offset="1" stop-color="#2C80FF"/>
</linearGradient>
<linearGradient id="paint35_linear_9432_13437" x1="317.308" y1="428.93" x2="410.407" y2="81.4777" gradientUnits="userSpaceOnUse">
<stop stop-color="#00DBD2"/>
<stop offset="1" stop-color="#2C80FF"/>
</linearGradient>
<linearGradient id="paint36_linear_9432_13437" x1="319.926" y1="429.608" x2="412.484" y2="84.1754" gradientUnits="userSpaceOnUse">
<stop stop-color="#00DBD2"/>
<stop offset="1" stop-color="#2C80FF"/>
</linearGradient>
<linearGradient id="paint37_linear_9432_13437" x1="322.552" y1="430.257" x2="414.561" y2="86.8731" gradientUnits="userSpaceOnUse">
<stop stop-color="#00DBD2"/>
<stop offset="1" stop-color="#2C80FF"/>
</linearGradient>
<linearGradient id="paint38_linear_9432_13437" x1="325.169" y1="430.904" x2="416.633" y2="89.5569" gradientUnits="userSpaceOnUse">
<stop stop-color="#00DBD2"/>
<stop offset="1" stop-color="#2C80FF"/>
</linearGradient>
<linearGradient id="paint39_linear_9432_13437" x1="327.787" y1="431.608" x2="418.717" y2="92.2533" gradientUnits="userSpaceOnUse">
<stop stop-color="#00DBD2"/>
<stop offset="1" stop-color="#2C80FF"/>
</linearGradient>
<linearGradient id="paint40_linear_9432_13437" x1="330.405" y1="432.255" x2="420.786" y2="94.9471" gradientUnits="userSpaceOnUse">
<stop stop-color="#00DBD2"/>
<stop offset="1" stop-color="#2C80FF"/>
</linearGradient>
<linearGradient id="paint41_linear_9432_13437" x1="333.038" y1="432.905" x2="422.875" y2="97.6313" gradientUnits="userSpaceOnUse">
<stop stop-color="#00DBD2"/>
<stop offset="1" stop-color="#2C80FF"/>
</linearGradient>
<linearGradient id="paint42_linear_9432_13437" x1="335.637" y1="433.598" x2="424.933" y2="100.34" gradientUnits="userSpaceOnUse">
<stop stop-color="#00DBD2"/>
<stop offset="1" stop-color="#2C80FF"/>
</linearGradient>
<linearGradient id="paint43_linear_9432_13437" x1="338.294" y1="434.255" x2="427.042" y2="103.042" gradientUnits="userSpaceOnUse">
<stop stop-color="#00DBD2"/>
<stop offset="1" stop-color="#2C80FF"/>
</linearGradient>
<linearGradient id="paint44_linear_9432_13437" x1="340.911" y1="434.91" x2="429.114" y2="105.731" gradientUnits="userSpaceOnUse">
<stop stop-color="#00DBD2"/>
<stop offset="1" stop-color="#2C80FF"/>
</linearGradient>
<linearGradient id="paint45_linear_9432_13437" x1="343.537" y1="435.582" x2="431.2" y2="108.418" gradientUnits="userSpaceOnUse">
<stop stop-color="#00DBD2"/>
<stop offset="1" stop-color="#2C80FF"/>
</linearGradient>
<linearGradient id="paint46_linear_9432_13437" x1="346.147" y1="436.253" x2="433.269" y2="111.107" gradientUnits="userSpaceOnUse">
<stop stop-color="#00DBD2"/>
<stop offset="1" stop-color="#2C80FF"/>
</linearGradient>
<linearGradient id="paint47_linear_9432_13437" x1="348.772" y1="436.902" x2="435.35" y2="113.788" gradientUnits="userSpaceOnUse">
<stop stop-color="#00DBD2"/>
<stop offset="1" stop-color="#2C80FF"/>
</linearGradient>
<linearGradient id="paint48_linear_9432_13437" x1="351.385" y1="437.553" x2="437.419" y2="116.47" gradientUnits="userSpaceOnUse">
<stop stop-color="#00DBD2"/>
<stop offset="1" stop-color="#2C80FF"/>
</linearGradient>
<linearGradient id="paint49_linear_9432_13437" x1="354.003" y1="438.226" x2="439.497" y2="119.156" gradientUnits="userSpaceOnUse">
<stop stop-color="#00DBD2"/>
<stop offset="1" stop-color="#2C80FF"/>
</linearGradient>
<linearGradient id="paint50_linear_9432_13437" x1="356.624" y1="438.872" x2="441.572" y2="121.843" gradientUnits="userSpaceOnUse">
<stop stop-color="#00DBD2"/>
<stop offset="1" stop-color="#2C80FF"/>
</linearGradient>
<linearGradient id="paint51_linear_9432_13437" x1="359.25" y1="439.521" x2="443.654" y2="124.522" gradientUnits="userSpaceOnUse">
<stop stop-color="#00DBD2"/>
<stop offset="1" stop-color="#2C80FF"/>
</linearGradient>
<linearGradient id="paint52_linear_9432_13437" x1="361.86" y1="440.192" x2="445.724" y2="127.204" gradientUnits="userSpaceOnUse">
<stop stop-color="#00DBD2"/>
<stop offset="1" stop-color="#2C80FF"/>
</linearGradient>
<linearGradient id="paint53_linear_9432_13437" x1="364.493" y1="440.849" x2="447.811" y2="129.901" gradientUnits="userSpaceOnUse">
<stop stop-color="#00DBD2"/>
<stop offset="1" stop-color="#2C80FF"/>
</linearGradient>
<linearGradient id="paint54_linear_9432_13437" x1="367.103" y1="441.519" x2="449.884" y2="132.574" gradientUnits="userSpaceOnUse">
<stop stop-color="#00DBD2"/>
<stop offset="1" stop-color="#2C80FF"/>
</linearGradient>
<linearGradient id="paint55_linear_9432_13437" x1="369.728" y1="442.192" x2="451.971" y2="135.257" gradientUnits="userSpaceOnUse">
<stop stop-color="#00DBD2"/>
<stop offset="1" stop-color="#2C80FF"/>
</linearGradient>
<linearGradient id="paint56_linear_9432_13437" x1="372.346" y1="442.839" x2="454.042" y2="137.942" gradientUnits="userSpaceOnUse">
<stop stop-color="#00DBD2"/>
<stop offset="1" stop-color="#2C80FF"/>
</linearGradient>
<linearGradient id="paint57_linear_9432_13437" x1="374.967" y1="443.495" x2="456.121" y2="140.625" gradientUnits="userSpaceOnUse">
<stop stop-color="#00DBD2"/>
<stop offset="1" stop-color="#2C80FF"/>
</linearGradient>
<linearGradient id="paint58_linear_9432_13437" x1="377.584" y1="444.165" x2="458.2" y2="143.304" gradientUnits="userSpaceOnUse">
<stop stop-color="#00DBD2"/>
<stop offset="1" stop-color="#2C80FF"/>
</linearGradient>
<linearGradient id="paint59_linear_9432_13437" x1="380.21" y1="444.814" x2="460.28" y2="145.99" gradientUnits="userSpaceOnUse">
<stop stop-color="#00DBD2"/>
<stop offset="1" stop-color="#2C80FF"/>
</linearGradient>
<linearGradient id="paint60_linear_9432_13437" x1="382.835" y1="445.461" x2="462.362" y2="148.662" gradientUnits="userSpaceOnUse">
<stop stop-color="#00DBD2"/>
<stop offset="1" stop-color="#2C80FF"/>
</linearGradient>
<linearGradient id="paint61_linear_9432_13437" x1="385.432" y1="446.162" x2="464.428" y2="151.344" gradientUnits="userSpaceOnUse">
<stop stop-color="#00DBD2"/>
<stop offset="1" stop-color="#2C80FF"/>
</linearGradient>
<linearGradient id="paint62_linear_9432_13437" x1="388.057" y1="446.809" x2="466.508" y2="154.027" gradientUnits="userSpaceOnUse">
<stop stop-color="#00DBD2"/>
<stop offset="1" stop-color="#2C80FF"/>
</linearGradient>
<linearGradient id="paint63_linear_9432_13437" x1="390.683" y1="447.458" x2="468.591" y2="156.7" gradientUnits="userSpaceOnUse">
<stop stop-color="#00DBD2"/>
<stop offset="1" stop-color="#2C80FF"/>
</linearGradient>
<linearGradient id="paint64_linear_9432_13437" x1="393.288" y1="448.127" x2="470.659" y2="159.375" gradientUnits="userSpaceOnUse">
<stop stop-color="#00DBD2"/>
<stop offset="1" stop-color="#2C80FF"/>
</linearGradient>
<linearGradient id="paint65_linear_9432_13437" x1="395.921" y1="448.784" x2="472.747" y2="162.066" gradientUnits="userSpaceOnUse">
<stop stop-color="#00DBD2"/>
<stop offset="1" stop-color="#2C80FF"/>
</linearGradient>
<linearGradient id="paint66_linear_9432_13437" x1="398.538" y1="449.431" x2="474.822" y2="164.736" gradientUnits="userSpaceOnUse">
<stop stop-color="#00DBD2"/>
<stop offset="1" stop-color="#2C80FF"/>
</linearGradient>
<linearGradient id="paint67_linear_9432_13437" x1="401.164" y1="450.104" x2="476.906" y2="167.431" gradientUnits="userSpaceOnUse">
<stop stop-color="#00DBD2"/>
<stop offset="1" stop-color="#2C80FF"/>
</linearGradient>
<linearGradient id="paint68_linear_9432_13437" x1="403.765" y1="450.805" x2="478.974" y2="170.122" gradientUnits="userSpaceOnUse">
<stop stop-color="#00DBD2"/>
<stop offset="1" stop-color="#2C80FF"/>
</linearGradient>
<linearGradient id="paint69_linear_9432_13437" x1="406.421" y1="451.462" x2="481.089" y2="172.801" gradientUnits="userSpaceOnUse">
<stop stop-color="#00DBD2"/>
<stop offset="1" stop-color="#2C80FF"/>
</linearGradient>
<linearGradient id="paint70_linear_9432_13437" x1="409.039" y1="452.109" x2="483.164" y2="175.468" gradientUnits="userSpaceOnUse">
<stop stop-color="#00DBD2"/>
<stop offset="1" stop-color="#2C80FF"/>
</linearGradient>
<linearGradient id="paint71_linear_9432_13437" x1="411.66" y1="452.78" x2="485.249" y2="178.143" gradientUnits="userSpaceOnUse">
<stop stop-color="#00DBD2"/>
<stop offset="1" stop-color="#2C80FF"/>
</linearGradient>
<clipPath id="clip0_9432_13437">
<rect width="502" height="323" fill="white"/>
</clipPath>
<clipPath id="clip1_9432_13437">
<rect width="649.546" height="434.022" fill="white" transform="translate(615.414 510.352) rotate(-165)"/>
</clipPath>
</defs>
</svg>
