<svg width="85" height="85" viewBox="0 0 85 85" fill="none" xmlns="http://www.w3.org/2000/svg">
<rect width="84.0909" height="84.0909" rx="18.1818" fill="url(#paint0_linear_8963_12980)"/>
<path d="M18.0841 69.3206C15.626 69.3206 13.6328 67.3274 13.6328 64.8693V38.4081C13.6328 28.4502 19.3455 19.8994 28.5433 16.0909C37.741 12.2824 47.8282 14.2877 54.8711 21.3265L66.0943 32.5498C67.8328 34.2883 69.4581 38.1412 67.7236 39.8797C65.9852 41.6182 67.7034 46.7447 59.8035 38.8447L48.5802 27.6214C43.2677 22.3049 36.5079 22.4262 31.9555 24.3143C27.4031 26.1983 22.5395 30.8922 22.5395 38.4081V64.8693C22.5395 67.3274 20.5463 69.3206 18.0882 69.3206H18.0841Z" fill="white"/>
<path d="M70.4528 18.9983V46.9392C70.4528 56.0723 65.209 63.9197 56.7714 67.4088C53.9454 68.5812 51.0263 69.1553 48.1518 69.1553C42.4472 69.1553 36.9164 66.9034 32.6228 62.6098L22.5234 52.5024V39.9045C22.8994 40.2724 23.4614 40.8425 24.2821 41.6793L38.9136 56.3108C43.5347 60.9319 49.4091 60.8228 53.3672 59.1854C57.3253 57.548 61.5502 53.4686 61.5502 46.9352V18.9943C61.5502 16.5362 63.5433 14.543 66.0015 14.543C68.4596 14.543 70.4528 16.5362 70.4528 18.9943V18.9983Z" fill="white"/>
<path d="M37.746 40.5192C39.53 40.5192 40.9763 39.073 40.9763 37.2889C40.9763 35.5049 39.53 34.0586 37.746 34.0586C35.9619 34.0586 34.5156 35.5049 34.5156 37.2889C34.5156 39.073 35.9619 40.5192 37.746 40.5192Z" fill="white"/>
<path d="M50.1131 50.4685C51.8972 50.4685 53.3435 49.0222 53.3435 47.2381C53.3435 45.4541 51.8972 44.0078 50.1131 44.0078C48.3291 44.0078 46.8828 45.4541 46.8828 47.2381C46.8828 49.0222 48.3291 50.4685 50.1131 50.4685Z" fill="white"/>
<defs>
<linearGradient id="paint0_linear_8963_12980" x1="0" y1="0" x2="87" y2="83" gradientUnits="userSpaceOnUse">
<stop stop-color="#0148FC"/>
<stop offset="1" stop-color="#0FD4D3"/>
</linearGradient>
</defs>
</svg>
